<svg viewBox="0 0 40 40" fill="none" xmlns="http://www.w3.org/2000/svg" class="mr-4 h-10 w-10"><path d="M31.224 12.855c-.138-7.24-6.118-12.99-13.36-12.853-7.05.131-12.726 5.813-12.857 12.853 0 .034-.007.069-.007.096V36.85a1.455 1.455 0 002.91 0v-4.233a1.455 1.455 0 012.912 0v2.006c.02.807.682 1.441 1.49 1.427a1.463 1.463 0 001.427-1.427v-2.006a1.455 1.455 0 012.91 0v.551a1.455 1.455 0 002.912 0v-.551a1.462 1.462 0 011.49-1.427c.779.013 1.407.648 1.427 1.427v2.006c0 .807.656 1.455 1.456 1.455.8 0 1.469-.641 1.469-1.448v-2.006a1.455 1.455 0 012.91 0v4.233a1.455 1.455 0 002.911 0V12.958a.26.26 0 000-.103zm-17.947 2.103c-1.29 0-2.331-1.193-2.331-2.676 0-1.482 1.048-2.675 2.331-2.675s2.331 1.193 2.331 2.675c0 1.483-1.041 2.676-2.331 2.676zm4.939 3.778c-1.173 0-2.118-.696-2.118-1.558 0-.862.952-.338 2.118-.338 1.165 0 2.117-.517 2.117.338s-.945 1.551-2.117 1.558zm4.738-3.778c-1.29 0-2.331-1.193-2.331-2.676 0-1.482 1.041-2.675 2.331-2.675s2.332 1.193 2.332 2.675c0 1.483-1.049 2.676-2.332 2.676z" fill="url(#aave-v2_svg__paint0_linear)"></path><circle cx="26.311" cy="31.148" r="8.852" fill="#fff" fill-opacity=".9"></circle><path d="M23.005 34.098l2.211-6.295c.1-.217.244-.325.434-.325a.44.44 0 01.272.081.41.41 0 01.163.326v.054a.21.21 0 01-.027.081l-2.32 6.323c-.109.361-.367.542-.774.542-.362 0-.606-.18-.732-.542l-2.361-6.296a.475.475 0 01-.027-.149c0-.045.013-.095.04-.149a.573.573 0 01.109-.15.487.487 0 01.312-.121c.226 0 .37.1.434.298l2.266 6.322zm6.362-5.915a1.936 1.936 0 00-.76.15c-.208.063-.393.14-.556.23-.154.09-.276.136-.366.136a.314.314 0 01-.231-.095.299.299 0 01-.095-.217c0-.082.031-.159.095-.231.063-.072.15-.145.258-.217.108-.072.23-.14.366-.204.136-.063.285-.113.448-.149.343-.108.65-.163.922-.163.271 0 .538.037.8.109.272.072.512.19.72.353.434.325.65.75.65 1.275 0 .913-.7 2.053-2.102 3.419-.271.262-.552.542-.841.841-.28.29-.53.525-.746.706h3.31c.127 0 .222.04.285.122a.432.432 0 01.095.27c0 .1-.032.186-.095.259-.063.072-.158.108-.285.108h-3.758c-.217 0-.38-.045-.489-.135a.412.412 0 01-.149-.313c0-.244.1-.456.299-.637.199-.181.43-.407.692-.678.262-.272.52-.534.773-.787.253-.254.506-.52.76-.8.253-.281.47-.557.651-.828.434-.597.651-1.086.651-1.466a.908.908 0 00-.407-.787c-.235-.18-.533-.27-.895-.27z" fill="url(#aave-v2_svg__paint1_linear)"></path><defs><linearGradient id="aave-v2_svg__paint0_linear" x1="4.061" y1="36.636" x2="37.76" y2="20.827" gradientUnits="userSpaceOnUse"><stop stop-color="#30BAC6"></stop><stop offset="1" stop-color="#B6509E"></stop></linearGradient><linearGradient id="aave-v2_svg__paint1_linear" x1="30.598" y1="28.924" x2="22.913" y2="35.897" gradientUnits="userSpaceOnUse"><stop stop-color="#B155A0"></stop><stop offset="1" stop-color="#49BFCA"></stop></linearGradient></defs></svg>