<svg width="40" height="31" viewBox="0 0 40 31" fill="none" xmlns="http://www.w3.org/2000/svg">
<path d="M33.8839 2.74924C31.2558 1.52553 28.4814 0.657387 25.6316 0.166992C25.2416 0.876032 24.8887 1.60554 24.5745 2.35246C21.5388 1.88721 18.4517 1.88721 15.416 2.35246C15.1016 1.60562 14.7488 0.876117 14.3589 0.166992C11.5072 0.661529 8.73102 1.53173 6.10033 2.75564C0.877742 10.6144 -0.53802 18.2779 0.169861 25.8326C3.22834 28.1309 6.65165 29.8788 10.291 31.0003C11.1105 29.8794 11.8356 28.6902 12.4587 27.4453C11.2752 26.9958 10.1329 26.4411 9.04512 25.7878C9.33141 25.5767 9.61142 25.3591 9.88199 25.1479C13.0473 26.6618 16.5021 27.4468 20 27.4468C23.4978 27.4468 26.9526 26.6618 30.1179 25.1479C30.3917 25.3751 30.6717 25.5927 30.9548 25.7878C29.8649 26.4422 28.7205 26.9979 27.535 27.4485C28.1573 28.6928 28.8825 29.881 29.7027 31.0003C33.3451 29.8833 36.771 28.1363 39.8301 25.8358V25.8358C40.6607 17.0748 38.4112 9.48163 33.8839 2.74924ZM13.3553 21.1865C11.3827 21.1865 9.753 19.3658 9.753 17.126C9.753 14.8861 11.3261 13.0494 13.349 13.0494C15.372 13.0494 16.9891 14.8861 16.9545 17.126C16.9199 19.3658 15.3657 21.1865 13.3553 21.1865ZM26.6446 21.1865C24.6688 21.1865 23.0454 19.3658 23.0454 17.126C23.0454 14.8861 24.6185 13.0494 26.6446 13.0494C28.6707 13.0494 30.2753 14.8861 30.2406 17.126C30.206 19.3658 28.655 21.1865 26.6446 21.1865Z" fill="#5865F2"/>
</svg>
