<svg width="40" height="40" viewBox="0 0 40 40" fill="none" xmlns="http://www.w3.org/2000/svg">
<path d="M20.0013 0.00124272C8.95181 0.00124272 0 8.90791 0 19.885C0 28.6748 5.73036 36.125 13.6721 38.7534C14.6759 38.9411 15.0384 38.3259 15.0384 37.794C15.0384 37.3218 15.0272 36.0728 15.0197 34.415C9.45309 35.613 8.28052 31.7419 8.28052 31.7419C7.36921 29.4503 6.05413 28.8352 6.05413 28.8352C4.24402 27.6061 6.19789 27.6322 6.19789 27.6322C8.20301 27.7676 9.25808 29.6765 9.25808 29.6765C11.0419 32.7187 13.9384 31.8388 15.0847 31.3268C15.2597 30.0456 15.781 29.1645 16.3485 28.6736C11.9082 28.1753 7.2392 26.4665 7.2392 18.8473C7.2392 16.6713 8.01425 14.8991 9.29558 13.5073C9.07432 13.0089 8.39678 10.9833 9.47184 8.2443C9.47184 8.2443 11.1457 7.71365 14.9722 10.2836C16.5735 9.84245 18.2736 9.62249 19.9725 9.6113C21.6726 9.62249 23.3715 9.84369 24.9728 10.2836C28.7768 7.71365 30.4494 8.2443 30.4494 8.2443C31.5232 10.9833 30.8457 13.0077 30.6507 13.5073C31.9195 14.8991 32.6945 16.6725 32.6945 18.8473C32.6945 26.4839 28.0193 28.1678 23.574 28.6537C24.269 29.249 24.9203 30.4731 24.9203 32.331C24.9203 34.9904 24.8953 37.1329 24.8953 37.7803C24.8953 38.2973 25.2453 38.9187 26.2754 38.7186C34.2759 36.1176 40 28.6612 40 19.8837C40 8.90667 31.0482 0 19.9988 0L20.0013 0.00124272Z" fill="black"/>
<path d="M24.1829 28.5418C24.9127 29.1604 25.5958 30.4333 25.5958 32.3647C25.5958 35.1307 25.5681 37.3577 25.5681 38.0309C25.5681 38.5237 26.25 38.1818 27.5 38.1818C28.4919 38.1818 22.6359 40 20.4335 40C18.2311 40 15.7119 39.3876 13.75 38.7879C14.482 38.7606 15 38.1818 15 38.1818C15 37.71 15.0085 36.2692 15 34.5455C9.16098 35.7911 8.14047 31.7524 8.14047 31.7524C7.18503 29.3701 5.80614 28.7305 5.80614 28.7305C3.90803 27.4534 5.95722 27.4786 5.95722 27.4786C8.05961 27.6212 9.16613 29.605 9.16613 29.605C11.25 32.3647 13.7977 31.4417 15 30.9091C15.1851 29.5775 15.625 29.0909 16.3926 28.7305C11.7368 28.2126 7.04885 26.2665 7.04885 18.346C7.04885 16.0833 7.86171 14.24 9.20656 12.7931C8.97461 12.2751 8.26389 10.1676 9.39169 7.31982C9.39169 7.31982 11.1472 6.7683 15.1605 9.43993C16.8394 8.98277 18.6226 8.7521 20.4058 8.74161C22.189 8.7521 23.9701 8.98277 25.649 9.43993C29.641 6.7683 31.3944 7.31982 31.3944 7.31982C32.5201 10.1676 31.8093 12.273 31.6051 12.7931C32.9371 14.24 33.75 16.0833 33.75 18.346C33.75 26.2854 28.8451 28.0364 24.1829 28.5418Z" fill="white"/>
</svg>
